
<svg width="30" height="30" viewBox="0 0 30 30" fill="none" xmlns="http://www.w3.org/2000/svg">
<path d="M15 2.5C14.337 2.5 13.7011 2.76339 13.2322 3.23223C12.7634 3.70107 12.5 4.33696 12.5 5C12.4912 5.12067 12.4912 5.24183 12.5 5.3625C8.9 6.425 6.25 9.775 6.25 13.75V21.25L3.75 23.75V25H26.25V23.75L23.75 21.25V13.75C23.75 9.775 21.1 6.425 17.5 5.3625C17.5088 5.24183 17.5088 5.12067 17.5 5C17.5 4.33696 17.2366 3.70107 16.7678 3.23223C16.2989 2.76339 15.663 2.5 15 2.5ZM15 7.5C16.6576 7.5 18.2473 8.15848 19.4194 9.33058C20.5915 10.5027 21.25 12.0924 21.25 13.75V22.5H8.75V13.75C8.75 12.0924 9.40848 10.5027 10.5806 9.33058C11.7527 8.15848 13.3424 7.5 15 7.5M26.25 8.75V16.25H28.75V8.75H26.25ZM26.25 18.75V21.25H28.75V18.75H26.25ZM12.5 26.25C12.5 26.913 12.7634 27.5489 13.2322 28.0178C13.7011 28.4866 14.337 28.75 15 28.75C15.663 28.75 16.2989 28.4866 16.7678 28.0178C17.2366 27.5489 17.5 26.913 17.5 26.25H12.5Z" fill="white"/>
</svg>
