
<svg width="30" height="30" viewBox="0 0 30 30" fill="none" xmlns="http://www.w3.org/2000/svg">
<path d="M24.1054 22.7697C24.2814 22.9474 24.3802 23.1875 24.3802 23.4376C24.3802 23.6878 24.2814 23.9279 24.1054 24.1056C23.9262 24.2789 23.6867 24.3757 23.4374 24.3757C23.1881 24.3757 22.9486 24.2789 22.7694 24.1056L14.9999 16.3244L7.23037 24.1056C7.05118 24.2789 6.81167 24.3757 6.5624 24.3757C6.31314 24.3757 6.07363 24.2789 5.89443 24.1056C5.71839 23.9279 5.61963 23.6878 5.61963 23.4376C5.61963 23.1875 5.71839 22.9474 5.89443 22.7697L13.6757 15.0001L5.89443 7.23062C5.74494 7.04846 5.66854 6.81722 5.6801 6.58186C5.69166 6.34649 5.79035 6.12385 5.95697 5.95722C6.1236 5.79059 6.34625 5.6919 6.58161 5.68034C6.81697 5.66878 7.04822 5.74518 7.23037 5.89468L14.9999 13.6759L22.7694 5.89468C22.9516 5.74518 23.1828 5.66878 23.4182 5.68034C23.6536 5.6919 23.8762 5.79059 24.0428 5.95722C24.2095 6.12385 24.3081 6.34649 24.3197 6.58186C24.3313 6.81722 24.2549 7.04846 24.1054 7.23062L16.3241 15.0001L24.1054 22.7697Z" fill="white"/>
</svg>
