
<svg width="15" height="15" viewBox="0 0 15 15" fill="none" xmlns="http://www.w3.org/2000/svg">
<path d="M12.0529 11.3846C12.141 11.4735 12.1903 11.5935 12.1903 11.7186C12.1903 11.8437 12.141 11.9637 12.0529 12.0526C11.9633 12.1392 11.8436 12.1876 11.7189 12.1876C11.5943 12.1876 11.4746 12.1392 11.385 12.0526L7.5002 8.16194L3.61543 12.0526C3.52583 12.1392 3.40608 12.1876 3.28145 12.1876C3.15681 12.1876 3.03706 12.1392 2.94746 12.0526C2.85944 11.9637 2.81006 11.8437 2.81006 11.7186C2.81006 11.5935 2.85944 11.4735 2.94746 11.3846L6.83809 7.49983L2.94746 3.61506C2.87271 3.52399 2.83451 3.40836 2.84029 3.29068C2.84607 3.173 2.89542 3.06168 2.97873 2.97837C3.06204 2.89505 3.17337 2.84571 3.29105 2.83993C3.40873 2.83415 3.52435 2.87235 3.61543 2.9471L7.5002 6.83772L11.385 2.9471C11.476 2.87235 11.5917 2.83415 11.7093 2.83993C11.827 2.84571 11.9383 2.89505 12.0217 2.97837C12.105 3.06168 12.1543 3.173 12.1601 3.29068C12.1659 3.40836 12.1277 3.52399 12.0529 3.61506L8.16231 7.49983L12.0529 11.3846Z" fill="white"/>
</svg>
