
<svg width="30" height="30" viewBox="0 0 30 30" fill="none" xmlns="http://www.w3.org/2000/svg">
<path d="M26.25 12.656C26.623 12.656 26.9806 12.5079 27.2444 12.2442C27.5081 11.9804 27.6562 11.6227 27.6562 11.2498C27.6562 10.8768 27.5081 10.5191 27.2444 10.2554C26.9806 9.99169 26.623 9.84353 26.25 9.84353H21.1172L22.0078 4.94509C22.0473 4.76095 22.0494 4.57075 22.0139 4.38578C21.9785 4.20082 21.9063 4.02486 21.8015 3.86834C21.6968 3.71182 21.5617 3.57793 21.4042 3.47462C21.2468 3.37131 21.0701 3.30068 20.8849 3.26692C20.6996 3.23316 20.5094 3.23696 20.3256 3.2781C20.1418 3.31923 19.9682 3.39686 19.815 3.50638C19.6618 3.61591 19.5321 3.75509 19.4337 3.91567C19.3353 4.07625 19.2702 4.25495 19.2422 4.44119L18.2578 9.84353H13.6172L14.5078 4.94509C14.5473 4.76095 14.5494 4.57075 14.5139 4.38578C14.4785 4.20082 14.4063 4.02486 14.3015 3.86834C14.1968 3.71182 14.0617 3.57793 13.9042 3.47462C13.7468 3.37131 13.5701 3.30068 13.3849 3.26692C13.1996 3.23316 13.0094 3.23696 12.8256 3.2781C12.6418 3.31923 12.4682 3.39686 12.315 3.50638C12.1618 3.61591 12.0321 3.75509 11.9337 3.91567C11.8353 4.07625 11.7702 4.25495 11.7422 4.44119L10.7578 9.84353H5.10937C4.73641 9.84353 4.37873 9.99169 4.11501 10.2554C3.85128 10.5191 3.70313 10.8768 3.70313 11.2498C3.70313 11.6227 3.85128 11.9804 4.11501 12.2442C4.37873 12.5079 4.73641 12.656 5.10937 12.656H10.2422L9.39844 17.3435H3.75C3.37704 17.3435 3.01935 17.4917 2.75563 17.7554C2.49191 18.0191 2.34375 18.3768 2.34375 18.7498C2.34375 19.1227 2.49191 19.4804 2.75563 19.7442C3.01935 20.0079 3.37704 20.156 3.75 20.156H8.88281L7.99219 25.0662C7.95849 25.2479 7.96126 25.4345 8.00033 25.6152C8.03939 25.7958 8.11398 25.9669 8.21975 26.1185C8.32552 26.27 8.46036 26.3991 8.61644 26.4981C8.77251 26.597 8.94671 26.664 9.12891 26.6951L9.375 26.7185C9.7033 26.7186 10.0213 26.6038 10.2739 26.3941C10.5264 26.1843 10.6976 25.8928 10.7578 25.5701L11.7422 20.156H16.3828L15.4922 25.0662C15.4585 25.2479 15.4613 25.4345 15.5003 25.6152C15.5394 25.7958 15.614 25.9669 15.7197 26.1185C15.8255 26.27 15.9604 26.3991 16.1164 26.4981C16.2725 26.597 16.4467 26.664 16.6289 26.6951L16.875 26.7185C17.2033 26.7186 17.5213 26.6038 17.7739 26.3941C18.0264 26.1843 18.1976 25.8928 18.2578 25.5701L19.2422 20.156H24.8906C25.2636 20.156 25.6213 20.0079 25.885 19.7442C26.1487 19.4804 26.2969 19.1227 26.2969 18.7498C26.2969 18.3768 26.1487 18.0191 25.885 17.7554C25.6213 17.4917 25.2636 17.3435 24.8906 17.3435H19.7578L20.6016 12.656H26.25ZM16.8984 17.3435H12.2578L13.1016 12.656H17.7422L16.8984 17.3435Z" fill="white"/>
</svg>
