
<svg width="25" height="25" viewBox="0 0 25 25" fill="none" xmlns="http://www.w3.org/2000/svg">
<path d="M11.328 20.104L4.45296 13.229C4.3488 13.1249 4.27484 13.012 4.23109 12.8905C4.18803 12.769 4.1665 12.6388 4.1665 12.4999C4.1665 12.361 4.18803 12.2308 4.23109 12.1092C4.27484 11.9877 4.3488 11.8749 4.45296 11.7707L11.328 4.8957C11.5189 4.70472 11.7575 4.60472 12.0436 4.5957C12.3304 4.58736 12.578 4.68736 12.7863 4.8957C12.9946 5.08667 13.1033 5.32521 13.1123 5.61132C13.1207 5.89813 13.0207 6.1457 12.8123 6.35403L7.70817 11.4582H19.3488C19.6439 11.4582 19.8915 11.5578 20.0915 11.7572C20.2908 11.9572 20.3905 12.2047 20.3905 12.4999C20.3905 12.795 20.2908 13.0422 20.0915 13.2415C19.8915 13.4415 19.6439 13.5415 19.3488 13.5415H7.70817L12.8123 18.6457C13.0033 18.8367 13.1033 19.0797 13.1123 19.3749C13.1207 19.67 13.0207 19.9131 12.8123 20.104C12.6214 20.3124 12.3783 20.4165 12.0832 20.4165C11.788 20.4165 11.5363 20.3124 11.328 20.104V20.104Z" fill="#E7E9EA"/>
</svg>
