
<svg width="30" height="30" viewBox="0 0 30 30" fill="none" xmlns="http://www.w3.org/2000/svg">
<path d="M6.25 26.25C5.5625 26.25 4.97375 26.0054 4.48375 25.5163C3.99458 25.0263 3.75 24.4375 3.75 23.75V6.25C3.75 5.5625 3.99458 4.97375 4.48375 4.48375C4.97375 3.99458 5.5625 3.75 6.25 3.75H23.75C24.4375 3.75 25.0263 3.99458 25.5163 4.48375C26.0054 4.97375 26.25 5.5625 26.25 6.25V23.75C26.25 24.4375 26.0054 25.0263 25.5163 25.5163C25.0263 26.0054 24.4375 26.25 23.75 26.25H6.25ZM6.25 23.75H23.75V6.25H6.25V23.75ZM10 21.25C10.3542 21.25 10.6513 21.13 10.8913 20.89C11.1304 20.6508 11.25 20.3542 11.25 20C11.25 19.6458 11.1304 19.3487 10.8913 19.1087C10.6513 18.8696 10.3542 18.75 10 18.75C9.64583 18.75 9.34875 18.8696 9.10875 19.1087C8.86958 19.3487 8.75 19.6458 8.75 20C8.75 20.3542 8.86958 20.6508 9.10875 20.89C9.34875 21.13 9.64583 21.25 10 21.25ZM10 16.25C10.3542 16.25 10.6513 16.13 10.8913 15.89C11.1304 15.6508 11.25 15.3542 11.25 15C11.25 14.6458 11.1304 14.3487 10.8913 14.1087C10.6513 13.8696 10.3542 13.75 10 13.75C9.64583 13.75 9.34875 13.8696 9.10875 14.1087C8.86958 14.3487 8.75 14.6458 8.75 15C8.75 15.3542 8.86958 15.6508 9.10875 15.89C9.34875 16.13 9.64583 16.25 10 16.25ZM10 11.25C10.3542 11.25 10.6513 11.13 10.8913 10.89C11.1304 10.6508 11.25 10.3542 11.25 10C11.25 9.64583 11.1304 9.34875 10.8913 9.10875C10.6513 8.86958 10.3542 8.75 10 8.75C9.64583 8.75 9.34875 8.86958 9.10875 9.10875C8.86958 9.34875 8.75 9.64583 8.75 10C8.75 10.3542 8.86958 10.6508 9.10875 10.89C9.34875 11.13 9.64583 11.25 10 11.25ZM15 21.25H20C20.3542 21.25 20.6508 21.13 20.89 20.89C21.13 20.6508 21.25 20.3542 21.25 20C21.25 19.6458 21.13 19.3487 20.89 19.1087C20.6508 18.8696 20.3542 18.75 20 18.75H15C14.6458 18.75 14.3492 18.8696 14.11 19.1087C13.87 19.3487 13.75 19.6458 13.75 20C13.75 20.3542 13.87 20.6508 14.11 20.89C14.3492 21.13 14.6458 21.25 15 21.25ZM15 16.25H20C20.3542 16.25 20.6508 16.13 20.89 15.89C21.13 15.6508 21.25 15.3542 21.25 15C21.25 14.6458 21.13 14.3487 20.89 14.1087C20.6508 13.8696 20.3542 13.75 20 13.75H15C14.6458 13.75 14.3492 13.8696 14.11 14.1087C13.87 14.3487 13.75 14.6458 13.75 15C13.75 15.3542 13.87 15.6508 14.11 15.89C14.3492 16.13 14.6458 16.25 15 16.25ZM15 11.25H20C20.3542 11.25 20.6508 11.13 20.89 10.89C21.13 10.6508 21.25 10.3542 21.25 10C21.25 9.64583 21.13 9.34875 20.89 9.10875C20.6508 8.86958 20.3542 8.75 20 8.75H15C14.6458 8.75 14.3492 8.86958 14.11 9.10875C13.87 9.34875 13.75 9.64583 13.75 10C13.75 10.3542 13.87 10.6508 14.11 10.89C14.3492 11.13 14.6458 11.25 15 11.25ZM6.25 23.75V6.25V23.75Z" fill="white"/>
</svg>
