
<svg width="37" height="37" viewBox="0 0 37 37" fill="none" xmlns="http://www.w3.org/2000/svg">
<path d="M34.6257 9.24984C33.4386 9.78942 32.159 10.144 30.8332 10.3136C32.1899 9.4965 33.2382 8.2015 33.7315 6.64442C32.4519 7.41525 31.0336 7.95484 29.5382 8.26317C28.3203 6.93734 26.609 6.1665 24.6665 6.1665C21.0436 6.1665 18.0836 9.1265 18.0836 12.7803C18.0836 13.3044 18.1453 13.8132 18.2532 14.2911C12.7649 14.0136 7.87777 11.3773 4.62486 7.38442C4.05444 8.35567 3.73069 9.4965 3.73069 10.699C3.73069 12.9961 4.88694 15.0311 6.67527 16.1873C5.58069 16.1873 4.56319 15.879 3.66902 15.4165V15.4628C3.66902 18.6694 5.95069 21.3519 8.97236 21.9532C8.00223 22.2187 6.98375 22.2556 5.99694 22.0611C6.41567 23.3753 7.23573 24.5253 8.34184 25.3494C9.44795 26.1734 10.7845 26.6301 12.1636 26.6553C9.82587 28.5059 6.9281 29.5063 3.94652 29.4919C3.42236 29.4919 2.89819 29.4611 2.37402 29.3994C5.30319 31.2803 8.78736 32.3748 12.5182 32.3748C24.6665 32.3748 31.3419 22.2923 31.3419 13.5511C31.3419 13.2582 31.3419 12.9807 31.3265 12.6878C32.6215 11.7628 33.7315 10.5911 34.6257 9.24984V9.24984Z" fill="#3587D3"/>
</svg>
