
<svg width="24" height="24" viewBox="0 0 24 24" fill="none" xmlns="http://www.w3.org/2000/svg">
<path d="M20.75 0.75C21.4375 0.75 22.0263 0.994583 22.5163 1.48375C23.0054 1.97375 23.25 2.5625 23.25 3.25L23.25 20.75C23.25 21.4375 23.0054 22.0263 22.5163 22.5163C22.0263 23.0054 21.4375 23.25 20.75 23.25L12 23.25L12 20.75L20.75 20.75L20.75 3.25L12 3.25L12 0.749999L20.75 0.75ZM7 5.75L8.71875 7.5625L5.53125 10.75L15.75 10.75L15.75 13.25L5.53125 13.25L8.71875 16.4375L7 18.25L0.750001 12L7 5.75Z" fill="white"/>
</svg>
