
<svg width="33" height="33" viewBox="0 0 33 33" fill="none" xmlns="http://www.w3.org/2000/svg">
<path d="M13.0627 17.875C13.4523 17.875 13.7791 17.743 14.0431 17.479C14.3062 17.2159 14.4377 16.8896 14.4377 16.5C14.4377 16.1104 14.3062 15.7836 14.0431 15.5196C13.7791 15.2565 13.4523 15.125 13.0627 15.125C12.6731 15.125 12.3468 15.2565 12.0837 15.5196C11.8197 15.7836 11.6877 16.1104 11.6877 16.5C11.6877 16.8896 11.8197 17.2159 12.0837 17.479C12.3468 17.743 12.6731 17.875 13.0627 17.875ZM17.8752 17.875C18.2648 17.875 18.5916 17.743 18.8556 17.479C19.1187 17.2159 19.2502 16.8896 19.2502 16.5C19.2502 16.1104 19.1187 15.7836 18.8556 15.5196C18.5916 15.2565 18.2648 15.125 17.8752 15.125C17.4856 15.125 17.1593 15.2565 16.8962 15.5196C16.6322 15.7836 16.5002 16.1104 16.5002 16.5C16.5002 16.8896 16.6322 17.2159 16.8962 17.479C17.1593 17.743 17.4856 17.875 17.8752 17.875ZM22.6877 17.875C23.0773 17.875 23.4036 17.743 23.6667 17.479C23.9307 17.2159 24.0627 16.8896 24.0627 16.5C24.0627 16.1104 23.9307 15.7836 23.6667 15.5196C23.4036 15.2565 23.0773 15.125 22.6877 15.125C22.2981 15.125 21.9713 15.2565 21.7073 15.5196C21.4442 15.7836 21.3127 16.1104 21.3127 16.5C21.3127 16.8896 21.4442 17.2159 21.7073 17.479C21.9713 17.743 22.2981 17.875 22.6877 17.875ZM12.3752 26.125C11.9169 26.125 11.4869 26.0219 11.0854 25.8156C10.6849 25.6094 10.3585 25.3229 10.1064 24.9562L5.25957 18.0812C4.93874 17.6 4.77832 17.0729 4.77832 16.5C4.77832 15.9271 4.93874 15.4 5.25957 14.9188L10.1064 8.04375C10.3585 7.67708 10.6849 7.39062 11.0854 7.18437C11.4869 6.97812 11.9169 6.875 12.3752 6.875H26.1252C26.8814 6.875 27.5291 7.1445 28.0681 7.6835C28.6062 8.22158 28.8752 8.86875 28.8752 9.625V23.375C28.8752 24.1313 28.6062 24.7789 28.0681 25.3179C27.5291 25.856 26.8814 26.125 26.1252 26.125H12.3752ZM7.49395 16.5L12.3752 23.375H26.1252V9.625H12.3752L7.49395 16.5ZM26.1252 16.5V9.625V23.375V16.5Z" fill="white"/>
</svg>
